<mxfile host="app.diagrams.net" modified="2023-10-02T12:55:31.933Z" agent="Mozilla/5.0 (Windows NT 10.0; Win64; x64) AppleWebKit/537.36 (KHTML, like Gecko) Chrome/117.0.0.0 Safari/537.36" etag="iqLzsdBBISf0YKBFW-PD" version="22.0.0" type="device">
  <diagram name="Page-1" id="X9ddQngVcmJdkyYqsLpJ">
    <mxGraphModel dx="1050" dy="566" grid="1" gridSize="10" guides="1" tooltips="1" connect="1" arrows="1" fold="1" page="1" pageScale="1" pageWidth="850" pageHeight="1100" math="0" shadow="0">
      <root>
        <mxCell id="0" />
        <mxCell id="1" parent="0" />
        <mxCell id="4PAkVxbkrfiaUwfRHUvu-8" value="" style="edgeStyle=orthogonalEdgeStyle;rounded=0;orthogonalLoop=1;jettySize=auto;html=1;" edge="1" parent="1" source="4PAkVxbkrfiaUwfRHUvu-4" target="4PAkVxbkrfiaUwfRHUvu-7">
          <mxGeometry relative="1" as="geometry" />
        </mxCell>
        <mxCell id="4PAkVxbkrfiaUwfRHUvu-10" value="" style="edgeStyle=orthogonalEdgeStyle;rounded=0;orthogonalLoop=1;jettySize=auto;html=1;" edge="1" parent="1" source="4PAkVxbkrfiaUwfRHUvu-4" target="4PAkVxbkrfiaUwfRHUvu-9">
          <mxGeometry relative="1" as="geometry" />
        </mxCell>
        <mxCell id="4PAkVxbkrfiaUwfRHUvu-12" value="" style="edgeStyle=orthogonalEdgeStyle;rounded=0;orthogonalLoop=1;jettySize=auto;html=1;" edge="1" parent="1" source="4PAkVxbkrfiaUwfRHUvu-4" target="4PAkVxbkrfiaUwfRHUvu-11">
          <mxGeometry relative="1" as="geometry" />
        </mxCell>
        <mxCell id="4PAkVxbkrfiaUwfRHUvu-4" value="USER" style="rounded=0;whiteSpace=wrap;html=1;" vertex="1" parent="1">
          <mxGeometry x="360" y="260" width="120" height="60" as="geometry" />
        </mxCell>
        <mxCell id="4PAkVxbkrfiaUwfRHUvu-7" value="username" style="ellipse;whiteSpace=wrap;html=1;" vertex="1" parent="1">
          <mxGeometry x="360" y="100" width="120" height="80" as="geometry" />
        </mxCell>
        <mxCell id="4PAkVxbkrfiaUwfRHUvu-9" value="password" style="ellipse;whiteSpace=wrap;html=1;" vertex="1" parent="1">
          <mxGeometry x="580" y="240" width="120" height="80" as="geometry" />
        </mxCell>
        <mxCell id="4PAkVxbkrfiaUwfRHUvu-11" value="Date of Birth" style="ellipse;whiteSpace=wrap;html=1;" vertex="1" parent="1">
          <mxGeometry x="170" y="240" width="120" height="80" as="geometry" />
        </mxCell>
        <mxCell id="4PAkVxbkrfiaUwfRHUvu-13" value="email address" style="ellipse;whiteSpace=wrap;html=1;" vertex="1" parent="1">
          <mxGeometry x="520" y="120" width="120" height="80" as="geometry" />
        </mxCell>
        <mxCell id="4PAkVxbkrfiaUwfRHUvu-14" value="" style="endArrow=classic;html=1;rounded=0;entryX=0;entryY=1;entryDx=0;entryDy=0;exitX=1;exitY=0;exitDx=0;exitDy=0;" edge="1" parent="1" source="4PAkVxbkrfiaUwfRHUvu-4" target="4PAkVxbkrfiaUwfRHUvu-13">
          <mxGeometry width="50" height="50" relative="1" as="geometry">
            <mxPoint x="400" y="320" as="sourcePoint" />
            <mxPoint x="450" y="270" as="targetPoint" />
          </mxGeometry>
        </mxCell>
        <mxCell id="4PAkVxbkrfiaUwfRHUvu-15" value="Phone Number" style="ellipse;whiteSpace=wrap;html=1;" vertex="1" parent="1">
          <mxGeometry x="200" y="120" width="120" height="80" as="geometry" />
        </mxCell>
        <mxCell id="4PAkVxbkrfiaUwfRHUvu-16" value="" style="endArrow=classic;html=1;rounded=0;entryX=0.997;entryY=0.81;entryDx=0;entryDy=0;entryPerimeter=0;exitX=0;exitY=0;exitDx=0;exitDy=0;" edge="1" parent="1" source="4PAkVxbkrfiaUwfRHUvu-4" target="4PAkVxbkrfiaUwfRHUvu-15">
          <mxGeometry width="50" height="50" relative="1" as="geometry">
            <mxPoint x="400" y="320" as="sourcePoint" />
            <mxPoint x="450" y="270" as="targetPoint" />
          </mxGeometry>
        </mxCell>
        <mxCell id="4PAkVxbkrfiaUwfRHUvu-17" value="USER" style="rounded=0;whiteSpace=wrap;html=1;" vertex="1" parent="1">
          <mxGeometry x="360" y="260" width="120" height="60" as="geometry" />
        </mxCell>
        <mxCell id="4PAkVxbkrfiaUwfRHUvu-20" value="Last Name" style="ellipse;whiteSpace=wrap;html=1;" vertex="1" parent="1">
          <mxGeometry x="480" y="370" width="120" height="80" as="geometry" />
        </mxCell>
        <mxCell id="4PAkVxbkrfiaUwfRHUvu-21" value="First Name" style="ellipse;whiteSpace=wrap;html=1;" vertex="1" parent="1">
          <mxGeometry x="240" y="370" width="120" height="80" as="geometry" />
        </mxCell>
        <mxCell id="4PAkVxbkrfiaUwfRHUvu-22" value="" style="endArrow=classic;html=1;rounded=0;entryX=0.957;entryY=0.23;entryDx=0;entryDy=0;entryPerimeter=0;" edge="1" parent="1" target="4PAkVxbkrfiaUwfRHUvu-21">
          <mxGeometry width="50" height="50" relative="1" as="geometry">
            <mxPoint x="400" y="320" as="sourcePoint" />
            <mxPoint x="450" y="270" as="targetPoint" />
          </mxGeometry>
        </mxCell>
        <mxCell id="4PAkVxbkrfiaUwfRHUvu-24" value="" style="endArrow=classic;html=1;rounded=0;" edge="1" parent="1" source="4PAkVxbkrfiaUwfRHUvu-17" target="4PAkVxbkrfiaUwfRHUvu-20">
          <mxGeometry width="50" height="50" relative="1" as="geometry">
            <mxPoint x="400" y="320" as="sourcePoint" />
            <mxPoint x="450" y="270" as="targetPoint" />
          </mxGeometry>
        </mxCell>
      </root>
    </mxGraphModel>
  </diagram>
</mxfile>
